<?xml version="1.0" encoding="UTF-8"?>
<svg id="Layer_1" data-name="Layer 1" xmlns="http://www.w3.org/2000/svg" viewBox="0 0 361.95 102.8">
  <g>
    <path d="M51.7,83.18c18.91,1.8,20.11-29.96,0-29.75-15.19.71-23.16-17.24-16.04-29.37-27.46,15.26-15.9,59.73,16.04,59.12Z" fill="#fff"/>
    <path d="M51.7,19.71c-18.91-1.8-20.11,29.96,0,29.75,15.19-.71,23.16,17.24,16.04,29.37,27.46-15.26,15.9-59.73-16.04-59.12Z" fill="#d8a07e"/>
    <path d="M51.4,102.8c-2.85,0-4.89-.16-6.63-.5-.52-.1-.94-.48-1.1-.98l-2-6.29-1.72-1.65c-3.54-.96-6.95-2.38-10.13-4.2l-2.38-.05-5.87,3.04c-.21.11-.44.16-.67.16-.28,0-.54-.08-.77-.23-1.48-.98-3.05-2.33-5.08-4.36-2.01-2.01-3.35-3.57-4.33-5.05-.29-.44-.33-1-.09-1.47l3.04-5.87-.05-2.38c-1.83-3.19-3.24-6.6-4.2-10.13l-1.65-1.72-6.29-2c-.5-.16-.87-.56-.97-1.06-.35-1.75-.51-3.8-.51-6.67s.16-4.89.5-6.63c.1-.52.48-.94.98-1.1l6.29-2,1.65-1.72c.96-3.54,2.38-6.95,4.2-10.13l.05-2.38-3.04-5.87c-.24-.46-.21-1.01.07-1.43.98-1.48,2.33-3.05,4.36-5.08s3.57-3.35,5.05-4.33c.24-.16.52-.25.81-.25.23,0,.45.06.66.16l5.87,3.04,2.38-.05c3.19-1.83,6.6-3.24,10.13-4.2l1.72-1.65,2-6.29c.16-.5.56-.87,1.06-.97,1.74-.35,3.8-.51,6.67-.51s4.89.16,6.63.5c.52.1.94.48,1.1.97l2,6.29,1.72,1.65c3.54.96,6.95,2.38,10.14,4.2l2.38.05,5.87-3.04c.21-.11.44-.16.67-.16.28,0,.54.08.77.23,1.49.98,3.05,2.33,5.08,4.36,2.01,2.01,3.35,3.57,4.33,5.05.29.44.33,1,.09,1.47l-3.04,5.87.05,2.38c1.83,3.19,3.24,6.6,4.2,10.13l1.65,1.72,6.29,2c.5.16.87.56.97,1.06.35,1.75.51,3.8.51,6.67s-.16,4.89-.5,6.63c-.1.52-.48.94-.98,1.1l-6.29,2-1.65,1.72c-.96,3.54-2.38,6.95-4.2,10.13l-.05,2.38,3.04,5.87c.24.46.21,1.01-.07,1.43-.98,1.48-2.33,3.05-4.36,5.08-2.01,2.01-3.57,3.35-5.05,4.33-.24.16-.52.25-.81.25-.23,0-.45-.05-.66-.16l-5.87-3.04-2.38.05c-3.19,1.83-6.6,3.24-10.14,4.2l-1.72,1.65-2,6.29c-.16.5-.56.87-1.06.97-1.75.35-3.8.51-6.67.51ZM51.4,14.99c-20.08,0-36.41,16.33-36.41,36.41s16.33,36.41,36.41,36.41,36.41-16.33,36.41-36.41S71.48,14.99,51.4,14.99Z" fill="#b0b0b1"/>
  </g>
  <g>
    <path d="M112.75,76.74l18.8-55.84h12.88l18.56,55.84h-10.72l-4.56-14.32h-19.92l-4.56,14.32h-10.48ZM130.19,53.54h14.96l-7.28-23.2h-.4l-7.28,23.2Z" fill="#b0b0b1"/>
    <path d="M180.75,76.74c-3.47,0-6.03-.87-7.68-2.6-1.65-1.73-2.48-4.17-2.48-7.32V17.54h10.08v51.2h5.52v8h-5.44Z" fill="#b0b0b1"/>
    <path d="M203.63,76.74c-3.47,0-6.03-.87-7.68-2.6-1.65-1.73-2.48-4.17-2.48-7.32V17.54h10.08v51.2h5.52v8h-5.44Z" fill="#b0b0b1"/>
    <path d="M221.95,28.74c-2.03,0-3.52-.48-4.48-1.44-.96-.96-1.44-2.16-1.44-3.6v-1.52c0-1.49.48-2.72,1.44-3.68s2.45-1.44,4.48-1.44,3.59.48,4.52,1.44c.93.96,1.4,2.19,1.4,3.68v1.52c0,1.44-.47,2.64-1.4,3.6-.93.96-2.44,1.44-4.52,1.44ZM216.91,76.74v-41.76h10.08v41.76h-10.08Z" fill="#b0b0b1"/>
    <path d="M249.23,77.7c-4.27,0-7.56-1.13-9.88-3.4-2.32-2.27-3.48-5.24-3.48-8.92,0-2.88.71-5.25,2.12-7.12,1.41-1.87,3.45-3.28,6.12-4.24,2.67-.96,5.89-1.44,9.68-1.44h7.12v-3.12c0-2.29-.63-4.11-1.88-5.44-1.25-1.33-3.27-2-6.04-2-2.35,0-4.27.53-5.76,1.6-1.49,1.07-2.75,2.32-3.76,3.76l-5.92-5.36c1.49-2.4,3.52-4.33,6.08-5.8,2.56-1.47,5.92-2.2,10.08-2.2,5.6,0,9.87,1.29,12.8,3.88,2.93,2.59,4.4,6.25,4.4,11v19.84h4.24v8h-5.6c-2.08,0-3.75-.57-5-1.72-1.25-1.15-2.09-2.68-2.52-4.6l-.16-.8h-.48c-.69,2.61-2.12,4.61-4.28,6-2.16,1.39-4.79,2.08-7.88,2.08ZM252.51,70.42c1.6,0,3.03-.24,4.28-.72,1.25-.48,2.25-1.17,3-2.08.75-.91,1.12-2.03,1.12-3.36v-5.6h-6.64c-2.77,0-4.83.45-6.16,1.36-1.33.91-2,2.21-2,3.92v1.36c0,1.65.56,2.92,1.68,3.8s2.69,1.32,4.72,1.32Z" fill="#b0b0b1"/>
    <path d="M299.15,93.7c-6.99,0-11.96-.87-14.92-2.6-2.96-1.73-4.44-4.17-4.44-7.32,0-2.29.65-4.09,1.96-5.4,1.31-1.31,3.13-2.17,5.48-2.6v-.88c-1.71-.43-3.01-1.25-3.92-2.48-.91-1.23-1.36-2.67-1.36-4.32,0-2.13.76-3.79,2.28-4.96,1.52-1.17,3.29-1.97,5.32-2.4v-.32c-2.51-1.17-4.4-2.81-5.68-4.92-1.28-2.11-1.92-4.55-1.92-7.32s.65-5.31,1.96-7.44c1.31-2.13,3.24-3.79,5.8-4.96,2.56-1.17,5.68-1.76,9.36-1.76,1.39,0,2.71.09,3.96.28,1.25.19,2.39.44,3.4.76v-1.28c0-1.97.51-3.48,1.52-4.52,1.01-1.04,2.45-1.56,4.32-1.56h6.48v7.76h-8.8v1.2c2.13,1.23,3.73,2.83,4.8,4.8,1.07,1.97,1.6,4.21,1.6,6.72,0,2.77-.65,5.23-1.96,7.36-1.31,2.13-3.24,3.79-5.8,4.96-2.56,1.17-5.71,1.76-9.44,1.76-1.17,0-2.29-.07-3.36-.2-1.07-.13-2.05-.31-2.96-.52-.8.37-1.51.87-2.12,1.48-.61.61-.92,1.37-.92,2.28,0,1.07.45,1.87,1.36,2.4.91.53,2.27.8,4.08.8h11.04c5.12,0,8.84,1.03,11.16,3.08,2.32,2.05,3.48,4.95,3.48,8.68,0,2.93-.72,5.4-2.16,7.4-1.44,2-3.75,3.51-6.92,4.52-3.17,1.01-7.4,1.52-12.68,1.52ZM296.75,86.74h5.12c3.36,0,5.81-.44,7.36-1.32,1.55-.88,2.32-2.17,2.32-3.88,0-1.39-.55-2.45-1.64-3.2-1.09-.75-2.95-1.12-5.56-1.12h-14.16c-.8.53-1.39,1.17-1.76,1.92-.37.75-.56,1.55-.56,2.4,0,1.6.67,2.87,2,3.8,1.33.93,3.63,1.4,6.88,1.4ZM299.15,55.38c2.45,0,4.33-.56,5.64-1.68,1.31-1.12,1.96-2.75,1.96-4.88v-1.36c0-2.13-.65-3.75-1.96-4.84-1.31-1.09-3.19-1.64-5.64-1.64s-4.33.55-5.64,1.64c-1.31,1.09-1.96,2.71-1.96,4.84v1.36c0,2.13.65,3.76,1.96,4.88,1.31,1.12,3.19,1.68,5.64,1.68Z" fill="#b0b0b1"/>
    <path d="M343.31,77.7c-4.11,0-7.63-.89-10.56-2.68-2.93-1.79-5.17-4.32-6.72-7.6-1.55-3.28-2.32-7.13-2.32-11.56s.76-8.27,2.28-11.52c1.52-3.25,3.72-5.79,6.6-7.6,2.88-1.81,6.35-2.72,10.4-2.72,4.32,0,7.88.96,10.68,2.88s4.88,4.47,6.24,7.64c1.36,3.17,2.04,6.68,2.04,10.52v3.36h-27.84v1.04c0,3.04.87,5.49,2.6,7.36,1.73,1.87,4.28,2.8,7.64,2.8,2.56,0,4.67-.53,6.32-1.6,1.65-1.07,3.09-2.43,4.32-4.08l5.52,6c-1.71,2.35-4.04,4.23-7,5.64-2.96,1.41-6.36,2.12-10.2,2.12ZM334.11,52.18h17.36v-.8c0-1.97-.32-3.68-.96-5.12-.64-1.44-1.57-2.57-2.8-3.4-1.23-.83-2.75-1.24-4.56-1.24s-3.4.41-4.76,1.24c-1.36.83-2.41,1.99-3.16,3.48-.75,1.49-1.12,3.23-1.12,5.2v.64Z" fill="#b0b0b1"/>
  </g>
</svg>